# xmcd
#
# Track frame offsets:
#	150
#	20954
#	48425
#
# Disc length: 960 seconds
# Revision: 0
# Processed by: cddbd v1.5.2PL0 Copyright (c) Steve Scherf et al.
# Submitted via: dBpowerAMP V12.0
#
DISCID=2303be03
DTITLE=Darwin Hobbs - Everyday [CD Single)
DYEAR=2000
DGENRE=Soul
TTITLE0=Everyday (Radio Edit) (Feat. Michael McDonald)
TTITLE1=Everyday (Feat. Michael McDonald)
TTITLE2=So Amazing
EXTD=
EXTT0=
EXTT1=
EXTT2=
PLAYORDER=
